<svg version="1.1" xmlns="http://www.w3.org/2000/svg" xmlns:xlink="http://www.w3.org/1999/xlink" width="39.195" height="50" viewBox="0,0,200.67188,256"><defs><clipPath id="clip-1"><path transform="translate(0,19.185)" d="M0,30.815h39.195v-50h-39.195z" id="clip-path" stroke="none" stroke-linejoin="miter"></path></clipPath></defs><g fill="none" fill-rule="nonzero" stroke="none" stroke-width="1" stroke-linecap="butt" stroke-linejoin="none" stroke-miterlimit="10" stroke-dasharray="" stroke-dashoffset="0" font-family="none" font-weight="none" font-size="none" text-anchor="none" style="mix-blend-mode: normal"><g transform="translate(-0.00326,0) scale(5.12,5.12)"><g transform="translate(0,19.185)" id="Grupo_870"><g transform="translate(0,-19.185)" clip-path="url(#clip-1)" id="Grupo_866"><g transform="translate(0.522,0.522)" id="Grupo_865" stroke="#ffffff" stroke-linejoin="round"><path transform="translate(0.379,11.283)" d="M0.61,18.123l3.229,-1.092M1.355,20.49l6.521,-2.108M17.331,27.548l0.537,4.566M15.517,26.545l0.662,5.489M12.489,7.787l3.122,1.827M13.495,4.814l6.354,4.173M19.533,-4.66l2.69,1.446M20.8,-6.646l3.586,2.262M30.232,0.531c0.557,2.969 1.268,6.779 1.827,9.748M8.053,18.829l1.386,4.861M31.253,-0.055l-7.719,1.014M9.184,11.339c-0.821,-1.183 -2.757,-0.526 -3.63,0.625c-0.8791,-1.04432 -2.31523,-1.43127 -3.6,-0.97c-1.80767,0.70598 -2.75486,2.69581 -2.163,4.544l3.844,12.162c0.04307,0.13275 0.0928,0.26325 0.149,0.391l-0.984,1.552c-1.52189,2.36769 -0.94432,5.51019 1.32,7.182c1.09352,0.74702 2.4463,1.01099 3.74044,0.72987c1.29413,-0.28111 2.4155,-1.08252 3.10056,-2.21587l1.462,-2.291l2.236,-0.469l6.013,-0.873c2.38786,-0.52241 3.94465,-2.8279 3.537,-5.238c-0.0649,-1.15774 -0.59463,-2.2402 -1.46901,-3.0018c-0.87438,-0.7616 -2.01929,-1.13778 -3.17499,-1.0432l-0.4,0.057l1.944,-3.054l1.191,-1.868c0.15863,-0.24876 0.29483,-0.51112 0.407,-0.784l3.393,-5.622l0.164,-0.034l7.193,-1.045c2.76417,-0.48439 4.65285,-3.06472 4.279,-5.846c-0.12513,-1.32463 -0.78067,-2.54234 -1.81752,-3.37615c-1.03685,-0.83381 -2.36685,-1.21283 -3.68748,-1.05085l-4.123,0.6l2.327,-3.654c1.52162,-2.36628 0.94343,-5.50758 -1.321,-7.177c-1.09268,-0.74783 -2.44501,-1.01291 -3.73916,-0.73293c-1.29415,0.27998 -2.41598,1.08032 -3.10184,2.21293l-8.778,13.764c-1.277,2.007 -1.637,6.377 -0.381,8.645l-4.54,7.123l-0.7,-2.2l-0.754,-2.528c0,0 3.38,-2.622 2.064,-4.514z" id="Caminho_789"></path></g></g></g></g></g></svg>