<svg version="1.1" xmlns="http://www.w3.org/2000/svg" xmlns:xlink="http://www.w3.org/1999/xlink" width="55" height="29.303" viewBox="0,0,256,136.39063"><defs><clipPath id="clip-1"><rect x="0" y="0" width="55" height="29.303" id="clip-path" fill="none"></rect></clipPath></defs><g fill="none" fill-rule="nonzero" stroke="none" stroke-width="1" stroke-linecap="butt" stroke-linejoin="miter" stroke-miterlimit="10" stroke-dasharray="" stroke-dashoffset="0" font-family="none" font-weight="none" font-size="none" text-anchor="none" style="mix-blend-mode: normal"><g transform="translate(0,-0.00076) scale(4.65455,4.65455)"><g id="Grupo_869"><g clip-path="url(#clip-1)" id="Grupo_861"><path transform="translate(-7.834,-0.684)" d="M26.252,29.207c-5.10752,-0.00441 -9.24704,-4.14348 -9.252,-9.251c-0.00145,-1.42333 0.32969,-2.82732 0.967,-4.1c0.01015,-0.03227 0.02355,-0.06343 0.04,-0.093l7.773,-14.021c0.10321,-0.16066 0.28105,-0.25779 0.472,-0.25779c0.19095,0 0.36879,0.09713 0.472,0.25779l7.776,14.019c0.01672,0.02991 0.03046,0.06139 0.041,0.094c0.63675,1.27284 0.96753,2.67677 0.966,4.1c-0.00606,5.10612 -4.14388,9.24394 -9.25,9.25M18.998,16.205c-0.00689,0.0188 -0.01491,0.03716 -0.024,0.055c-0.58485,1.14202 -0.88925,2.40693 -0.888,3.69c-0.03253,2.94094 1.51779,5.6725 4.05943,7.15244c2.54164,1.47994 5.6825,1.47994 8.22414,0c2.54164,-1.47994 4.09197,-4.21151 4.05943,-7.15244c0.00102,-1.28304 -0.30337,-2.5479 -0.888,-3.69c-0.00946,-0.01801 -0.01749,-0.03673 -0.024,-0.056l-7.26,-13.1z" id="Caminho_777" fill="#ffffff"></path><path transform="translate(-34.486,-9.401)" d="M76.1,28.032c-0.19699,0.00011 -0.37834,-0.10725 -0.473,-0.28c-1.35059,-2.33724 -0.9741,-5.28867 0.92,-7.212c0.22293,-0.17898 0.54683,-0.15277 0.73808,0.05973c0.19125,0.2125 0.18332,0.53736 -0.01808,0.74027c-1.52944,1.58464 -1.81376,3.99499 -0.695,5.892c0.09179,0.16709 0.08868,0.3702 -0.0082,0.5344c-0.09688,0.1642 -0.27315,0.26514 -0.4638,0.2656" id="Caminho_778" fill="#ffffff"></path><path transform="translate(-40.279,-10.876)" d="M88.447,25.67c-0.57025,-0.00055 -1.03218,-0.46308 -1.032,-1.03333c0.00018,-0.57025 0.46242,-1.03248 1.03267,-1.03267c0.57025,-0.00018 1.03278,0.46175 1.03333,1.032c-0.00055,0.57083 -0.46317,1.03345 -1.034,1.034M88.447,24.592c-0.02485,0 -0.045,0.02015 -0.045,0.045c0,0.05 0.09,0.05 0.09,0c0.00028,-0.01202 -0.00438,-0.02362 -0.01288,-0.03212c-0.0085,-0.0085 -0.02011,-0.01315 -0.03212,-0.01288" id="Caminho_779" fill="#ffffff"></path><path transform="translate(-20.247,0)" d="M75.176,13.922c-1.845,-3.254 -6.742,-5.913 -12.6,-7.378c-0.481,-0.948 -2.7,-4.964 -6.446,-6.5c-0.26631,-0.10809 -0.57066,0.01093 -0.693,0.271c-1.44864,2.45281 -3.74238,4.29285 -6.451,5.175c-0.642,0.064 -1.279,0.142 -1.907,0.242c-1.145,0.182 -2.182,0.407 -3.136,0.658l0.538,0.97c0.845,-0.212 1.763,-0.4 2.768,-0.562c4.9087,-0.71138 9.90793,-0.4823 14.731,0.675c0.0603,0.02693 0.12505,0.04252 0.191,0.046c5.56,1.348 10.2,3.8 12,6.816c-0.15412,1.14409 -0.71928,2.19301 -1.59,2.951c-4.2,4.275 -13.294,6.512 -20.1,6.512c-1.2546,-0.02506 -2.50174,-0.19963 -3.715,-0.52c-0.13482,0.3409 -0.28702,0.67467 -0.456,1c1.36037,0.37074 2.76129,0.57226 4.171,0.6c0.8,0 1.577,-0.032 2.349,-0.078c-0.33268,1.33721 -0.96916,2.57972 -1.86,3.631c-0.13076,0.16163 -0.1569,0.38405 -0.06719,0.57159c0.08971,0.18754 0.27929,0.30677 0.48719,0.30641h0.054c0.274,-0.028 6.625,-0.731 8.808,-5.662c5.1,-1.321 9.044,-3.51 11.1,-5.6c1.12203,-0.98235 1.8059,-2.37167 1.9,-3.86c-0.00168,-0.09014 -0.02573,-0.17846 -0.07,-0.257M51.851,5.33c1.74848,-0.99008 3.2279,-2.39328 4.309,-4.087c2.09083,1.17138 3.82025,2.89389 5,4.98c-3.05821,-0.64666 -6.17962,-0.94622 -9.305,-0.893M54.6,27.987c0.6545,-0.99119 1.10713,-2.1017 1.332,-3.268c1.65259,-0.14341 3.29429,-0.39259 4.915,-0.746c-1.557,2.538 -4.541,3.6 -6.247,4.013" id="Caminho_780" fill="#ffffff"></path><path transform="translate(0,-3.965)" d="M7.55,23.237c0,-0.015 0,-0.03 0,-0.045c-1.91061,0.81872 -3.74452,1.80595 -5.48,2.95c1.16724,-2.25571 2.05609,-4.64488 2.647,-7.115c0.592,-2.808 -0.487,-6.344 -1.282,-8.409c1.0542,0.84412 2.03046,1.78122 2.917,2.8c0.92581,1.2145 2.13645,2.18233 3.525,2.818l0.537,-0.968c-1.30043,-0.55092 -2.42856,-1.44176 -3.266,-2.579c-1.32804,-1.57354 -2.89679,-2.92695 -4.648,-4.01c-0.20484,-0.1212 -0.46493,-0.0937 -0.63989,0.06766c-0.17496,0.16136 -0.22338,0.41838 -0.11911,0.63234c0.027,0.056 2.722,5.642 1.926,9.424c-0.7924,3.075 -2.00053,6.02755 -3.591,8.776c-0.13103,0.22123 -0.08756,0.50421 0.10383,0.6759c0.19139,0.1717 0.47741,0.1843 0.68317,0.0301c2.11018,-1.53705 4.36914,-2.85865 6.743,-3.945c-0.03707,-0.3655 -0.05576,-0.73263 -0.056,-1.1" id="Caminho_781" fill="#ffffff"></path><path transform="translate(-10.74,-16.325)" d="M28.786,41.448c-3.02421,-0.00386 -5.47469,-2.45479 -5.478,-5.479c0,-0.29768 0.24132,-0.539 0.539,-0.539c0.29768,0 0.539,0.24132 0.539,0.539c0.00276,2.42891 1.97109,4.39724 4.4,4.4c0.29768,0 0.539,0.24132 0.539,0.539c0,0.29768 -0.24132,0.539 -0.539,0.539" id="Caminho_782" fill="#ffffff"></path></g></g></g></g></svg>