<svg version="1.1" xmlns="http://www.w3.org/2000/svg" xmlns:xlink="http://www.w3.org/1999/xlink" width="24px" height="24px" viewBox="0,0,256,256"><g fill="#ffffff" fill-rule="nonzero" stroke="none" stroke-width="1" stroke-linecap="butt" stroke-linejoin="miter" stroke-miterlimit="10" stroke-dasharray="" stroke-dashoffset="0" font-family="none" font-weight="none" font-size="none" text-anchor="none" style="mix-blend-mode: normal"><g transform="translate(0,256) scale(0.26667,0.26667)"><path d="M480,-120c-100,0 -185,-35 -255,-105c-70,-70 -105,-155 -105,-255c0,-100 35,-185 105,-255c70,-70 155,-105 255,-105c9.33333,0 18.5,0.33333 27.5,1c9,0.66667 17.83333,1.66667 26.5,3c-27.33333,19.33333 -49.16667,44.5 -65.5,75.5c-16.33333,31 -24.5,64.5 -24.5,100.5c0,60 21,111 63,153c42,42 93,63 153,63c36.66667,0 70.33333,-8.16667 101,-24.5c30.66667,-16.33333 55.66667,-38.16667 75,-65.5c1.33333,8.66667 2.33333,17.5 3,26.5c0.66667,9 1,18.16667 1,27.5c0,100 -35,185 -105,255c-70,70 -155,105 -255,105zM480,-200c58.66667,0 111.33333,-16.16667 158,-48.5c46.66667,-32.33333 80.66667,-74.5 102,-126.5c-13.33333,3.33333 -26.66667,6 -40,8c-13.33333,2 -26.66667,3 -40,3c-82,0 -151.83333,-28.83333 -209.5,-86.5c-57.66667,-57.66667 -86.5,-127.5 -86.5,-209.5c0,-13.33333 1,-26.66667 3,-40c2,-13.33333 4.66667,-26.66667 8,-40c-52,21.33333 -94.16667,55.33333 -126.5,102c-32.33333,46.66667 -48.5,99.33333 -48.5,158c0,77.33333 27.33333,143.33333 82,198c54.66667,54.66667 120.66667,82 198,82zM470,-470z"></path></g></g></svg>